# xmcd
#
# Track frame offsets:
#	150
#	14447
#	27588
#	40095
#	54594
#	65694
#	75798
#	88897
#	100401
#	113410
#	127749
#
# Disc length: 1873 seconds
#
# Revision: 0
# Processed by: cddbd v1.5.2PL0 Copyright (c) Steve Scherf et al.
# Submitted via: EasyCDDAExtractor 8.2.3.1
#
DISCID=82074f0b
DTITLE=Judy Lynn - Parts Of Love
DYEAR=1971
DGENRE=Country
TTITLE0=Married To A Memory
TTITLE1=The Closest ever Came
TTITLE2=Angel In The Morning
TTITLE3=I'm His Old Lady
TTITLE4=So Naturnal Is My Love
TTITLE5=When The Love Starts To Come
TTITLE6=Just To Be Kind
TTITLE7=Parts Of Love
TTITLE8=1927 Kansas City
TTITLE9=Sparrow And The Hawk
TTITLE10=Elusive Butterfly
EXTD=
EXTT0=
EXTT1=
EXTT2=
EXTT3=
EXTT4=
EXTT5=
EXTT6=
EXTT7=
EXTT8=
EXTT9=
EXTT10=
PLAYORDER=
